<svg width="32" height="32" viewBox="0 0 32 32" fill="none" xmlns="http://www.w3.org/2000/svg">
  <rect width="32" height="32" rx="8" fill="#7C3AED"/>
  <path d="M8 12C8 10.8954 8.89543 10 10 10H22C23.1046 10 24 10.8954 24 12V20C24 21.1046 23.1046 22 22 22H10C8.89543 22 8 21.1046 8 20V12Z" fill="#F0F6FC"/>
  <circle cx="12" cy="16" r="1.5" fill="#7C3AED"/>
  <circle cx="20" cy="16" r="1.5" fill="#7C3AED"/>
  <rect x="18" y="13" width="1" height="2" rx="0.5" fill="#7C3AED"/>
  <rect x="17" y="14" width="3" height="1" rx="0.5" fill="#7C3AED"/>
  <rect x="11" y="13" width="2" height="1" rx="0.5" fill="#7C3AED"/>
  <rect x="11" y="17" width="2" height="1" rx="0.5" fill="#7C3AED"/>
  <rect x="10" y="14" width="1" height="2" rx="0.5" fill="#7C3AED"/>
  <rect x="12" y="14" width="1" height="2" rx="0.5" fill="#7C3AED"/>
</svg>
